<?xml version="1.0" encoding="UTF-8" standalone="no"?>
<svg
   width="137"
   height="32"
   viewBox="0 0 137 32"
   fill="none"
   version="1.1"
   id="svg1"
   sodipodi:docname="dpelosn.svg"
   inkscape:version="1.4 (86a8ad7, 2024-10-11)"
   inkscape:export-filename="dpelosn.png"
   inkscape:export-xdpi="147.15329"
   inkscape:export-ydpi="147.15329"
   xmlns:inkscape="http://www.inkscape.org/namespaces/inkscape"
   xmlns:sodipodi="http://sodipodi.sourceforge.net/DTD/sodipodi-0.dtd"
   xmlns="http://www.w3.org/2000/svg"
   xmlns:svg="http://www.w3.org/2000/svg">
  <defs
     id="defs1" />
  <sodipodi:namedview
     id="namedview1"
     pagecolor="#ffffff"
     bordercolor="#000000"
     borderopacity="0.25"
     inkscape:showpageshadow="2"
     inkscape:pageopacity="0.0"
     inkscape:pagecheckerboard="0"
     inkscape:deskcolor="#d1d1d1"
     inkscape:zoom="12.963504"
     inkscape:cx="88.132038"
     inkscape:cy="16.006475"
     inkscape:window-width="1920"
     inkscape:window-height="1017"
     inkscape:window-x="-8"
     inkscape:window-y="-8"
     inkscape:window-maximized="1"
     inkscape:current-layer="svg1" />
  <path
     d="m 4.9785422,28.624899 0.00328,-0.911172 12.6000748,0.07444 c 1.554606,0.0092 2.871678,-0.165271 3.951219,-0.523369 1.079541,-0.3581 1.959412,-0.996837 2.639708,-1.916129 0.680384,-0.943619 1.173997,-2.252817 1.480847,-3.927597 0.331953,-1.674629 0.502498,-3.811911 0.511728,-6.411758 0.0092,-2.599846 -0.146173,-4.739056 -0.466225,-6.4175363 -0.29495,-1.678336 -0.7918,-2.9812403 -1.490645,-3.9087043 C 23.534868,3.7314582 22.659611,3.0702296 21.582659,2.6993904 20.505705,2.3285511 19.189926,2.1385392 17.63532,2.1293542 L 5.0728575,2.0551313 5.0761324,1.1439594 18.842186,1.2252928 c 1.880608,0.011112 3.621937,0.3980219 5.224081,1.1607418 1.62724,0.7385668 3.052924,1.755377 4.277047,3.0504235 1.224126,1.2950451 2.171719,2.7707042 2.842872,4.4269596 0.671152,1.6562273 1.003538,3.3834403 0.997156,5.1814553 -0.0064,1.798013 -0.363523,3.521154 -1.071513,5.169232 -0.682882,1.648229 -1.64091,3.112685 -2.874178,4.393184 -1.208162,1.280648 -2.62854,2.292788 -4.261041,3.036425 -1.632419,0.719308 -3.388977,1.073408 -5.269586,1.062296 z m 4.1392805,-0.52226 0.095616,-26.9342345 5.0400283,0.029778 -0.09562,26.9342345 z M 37.435753,11.868515 36.799066,11.099354 C 38.05579,10.256365 39.011919,9.3264934 39.667548,8.3098324 40.348279,7.2690201 40.69002,6.3598477 40.69278,5.5823172 40.694534,5.096363 40.583059,4.7069263 40.358413,4.4140182 40.158786,4.1212581 39.983841,3.974434 39.833394,3.973545 c -0.15045,-8.889e-4 -0.276231,0.09556 -0.377156,0.2893524 -0.10102,0.1937866 -0.227182,0.4238824 -0.378581,0.6902673 -0.151399,0.2663855 -0.377889,0.495878 -0.679476,0.6884917 -0.301588,0.1926016 -0.715668,0.287352 -1.242237,0.2842409 -0.777348,-0.00459 -1.353219,-0.2388288 -1.727703,-0.7027132 -0.349468,-0.4637376 -0.523163,-0.9628747 -0.521263,-1.497432 0.0026,-0.7532386 0.280748,-1.3955066 0.834323,-1.9267948 0.578586,-0.5311483 1.356884,-0.7938312 2.334801,-0.7880534 1.178482,0.00696 2.104859,0.413359 2.779031,1.2191909 0.699184,0.8059789 1.046757,1.8042641 1.042531,2.9948647 -0.0048,1.3606806 -0.435606,2.6095103 -1.29214,3.7464738 -0.856626,1.1369327 -1.913217,2.1026567 -3.169771,2.8970817 z m 14.349206,4.567838 0.0039,-1.093408 3.121811,0.01841 c 1.705146,0.01013 3.084802,-0.151895 4.13915,-0.48581 1.054432,-0.358247 1.821649,-1.021891 2.301455,-1.991023 0.479991,-0.993369 0.723215,-2.41339 0.72977,-4.2600637 C 62.08715,6.8993473 61.89124,5.5860745 61.493204,4.6846782 61.120272,3.7834304 60.545741,3.1725813 59.769513,2.8521125 58.993379,2.5316444 58.016022,2.3679335 56.837448,2.3609702 l -13.013811,-0.076888 0.0033,-0.9111719 14.518299,0.085778 c 1.805381,0.010656 3.421583,0.3360982 4.848604,0.9762853 1.452124,0.6403356 2.60249,1.5218751 3.451003,2.6446194 0.848694,1.0984419 1.270449,2.3644566 1.26536,3.7980296 -0.0054,1.5064394 -0.536661,2.8397444 -1.593942,3.9998194 -1.032089,1.135899 -2.514661,2.026214 -4.447811,2.670846 -1.932968,0.620313 -4.253537,0.92251 -6.961613,0.90651 z m -8.055637,12.417496 0.0033,-0.911172 14.066948,0.08311 -0.0033,0.911171 z m 4.13928,-0.522262 0.0956,-26.9342332 5.040029,0.029778 -0.09562,26.9342352 z m 29.038457,1.155656 c -1.203589,-0.0071 -2.343737,-0.244656 -3.420248,-0.712714 -1.051418,-0.492151 -1.976928,-1.141558 -2.776444,-1.948127 -0.799522,-0.8309 -1.423051,-1.757896 -1.870775,-2.781073 -0.447639,-1.047508 -0.669473,-2.130039 -0.665506,-3.247773 0.0053,-1.482202 0.361237,-2.877227 1.068019,-4.185166 0.731795,-1.307792 1.738611,-2.370941 3.020359,-3.189549 1.281746,-0.818603 2.787699,-1.222746 4.517859,-1.212524 1.354037,0.008 2.569056,0.318875 3.645147,0.932725 1.101189,0.589669 1.963336,1.42094 2.586441,2.493722 0.623011,1.072779 0.93215,2.301706 0.927234,3.686687 l -7.76e-4,0.218684 -12.299176,-0.07266 0.0033,-0.911172 7.936168,0.04689 0.0074,-2.077473 c 0.0078,-2.21114 -0.991251,-3.322591 -2.9972,-3.334442 -0.827469,-0.0049 -1.505351,0.234122 -2.033645,0.716937 -0.503196,0.458727 -0.882122,1.246128 -1.136775,2.362379 -0.22964,1.116403 -0.347868,2.634293 -0.354681,4.553861 -0.0069,1.96813 0.112926,3.49964 0.35982,4.594525 0.246803,1.094889 0.657824,1.862718 1.233052,2.303489 0.600242,0.440916 1.38932,0.664265 2.367236,0.670043 1.328931,0.0079 2.483568,-0.313357 3.463815,-0.963623 0.980246,-0.650267 1.811766,-1.787348 2.494563,-3.411338 l 1.053137,0.0061 c -0.507588,1.69792 -1.402469,3.041196 -2.684821,4.029826 -1.257249,0.964538 -2.738357,1.441726 -4.443411,1.431652 z M 89.054868,28.574927 89.148418,2.2238424 93.28575,2.2482834 93.1922,28.599368 Z m -2.973306,0.529151 0.0033,-0.911174 10.117669,0.05978 -0.0033,0.911171 z m 0.09432,-26.5697692 0.0033,-0.9111719 7.108696,0.041999 -0.0033,0.9111718 z M 107.2896,29.666749 c -1.22897,-0.0072 -2.38186,-0.257086 -3.45772,-0.749381 -1.05143,-0.492151 -1.98943,-1.14163 -2.81407,-1.948352 -0.80007,-0.830902 -1.423028,-1.757895 -1.870767,-2.781074 -0.447628,-1.047506 -0.669706,-2.117916 -0.665826,-3.211324 0.0039,-1.093405 0.233507,-2.14903 0.688466,-3.166876 0.45507,-1.042173 1.084587,-1.961764 1.890437,-2.758851 0.83041,-0.821272 1.77303,-1.471757 2.82791,-1.951465 1.07931,-0.47956 2.23392,-0.715751 3.46289,-0.70849 1.22805,0.0072 2.36871,0.257007 3.42013,0.749157 1.07585,0.492296 2.01385,1.153894 2.81392,1.984798 0.82463,0.806721 1.46077,1.733788 1.90839,2.781296 0.44772,1.023178 0.66965,2.081471 0.66576,3.174878 -0.005,1.093403 -0.23336,2.161148 -0.6884,3.203322 -0.45496,1.017846 -1.09765,1.937361 -1.92805,2.758629 -0.80587,0.797088 -1.74847,1.435457 -2.82778,1.915019 -1.05486,0.479706 -2.19724,0.715972 -3.42529,0.708714 z m 0.005,-1.093404 c 0.95253,0.0057 1.71773,-0.196417 2.29655,-0.60604 0.57788,-0.409631 0.99425,-1.148333 1.24907,-2.215923 0.27941,-1.091782 0.4232,-2.658178 0.43044,-4.699203 0.007,-2.041025 -0.12543,-3.609058 -0.39705,-4.704092 -0.24716,-1.094888 -0.65827,-1.83839 -1.23331,-2.230591 -0.57589,-0.416446 -1.3396,-0.627526 -2.29213,-0.633153 -0.95346,-0.0057 -1.71868,0.196412 -2.29656,0.606041 -0.5787,0.385387 -1.0073,1.123926 -1.28668,2.215703 -0.25496,1.091923 -0.38558,2.6584 -0.39282,4.699424 -0.007,2.041025 0.11229,3.608979 0.35944,4.703871 0.2717,1.070702 0.69504,1.814366 1.2709,2.230812 0.57494,0.41644 1.33869,0.627518 2.29215,0.633151 z m 19.53656,1.208857 c -1.02867,-0.0061 -2.03042,-0.182118 -3.00714,-0.528036 -0.95228,-0.345772 -1.72736,-0.799931 -2.32716,-1.362309 l -0.56925,1.418094 -1.09075,-0.0063 0.0201,-5.576371 1.20358,0.0071 0.18562,0.693603 c 0.34606,1.31416 0.96971,2.314047 1.87,2.999754 0.92471,0.685848 2.15249,1.033249 3.68235,1.042289 1.25343,0.0075 2.13147,-0.193973 2.63504,-0.604041 0.50275,-0.4344 0.756,-1.052514 0.75884,-1.854346 0.002,-0.801832 -0.33356,-1.38698 -1.00932,-1.755448 -0.67562,-0.392797 -1.71532,-0.739089 -3.11816,-1.038959 -1.20274,-0.250122 -2.25478,-0.560036 -3.15619,-0.929837 -0.87686,-0.393987 -1.56421,-0.932553 -2.06298,-1.615887 -0.49962,-0.707574 -0.74632,-1.668879 -0.742,-2.883745 0.006,-1.725124 0.52417,-3.034174 1.55606,-3.927149 1.03102,-0.917221 2.49953,-1.370241 4.40553,-1.358981 1.07757,0.0063 2.00515,0.157637 2.78175,0.453804 0.80103,0.296313 1.36378,0.700563 1.68826,1.212748 l 0.41802,-1.200303 0.97792,0.0058 -0.0184,5.2848 -1.16599,-0.0068 -0.111,-0.547374 c -0.27161,-1.362283 -0.75707,-2.34924 -1.45638,-2.960861 -0.67486,-0.611479 -1.68932,-0.92117 -3.04335,-0.929172 -1.2036,-0.0071 -2.10711,0.218355 -2.71055,0.67649 -0.57889,0.433953 -0.86882,1.05185 -0.87166,1.853679 -0.001,0.388797 0.11029,0.741725 0.33475,1.058961 0.22464,0.292907 0.63743,0.5626 1.23835,0.809165 0.62538,0.246706 1.4896,0.494737 2.59266,0.744267 1.27787,0.274804 2.35426,0.621401 3.23102,1.039627 0.87584,0.418216 1.5387,0.968847 1.98762,1.651884 0.47339,0.683186 0.70907,1.57144 0.70518,2.664845 -0.006,1.676558 -0.53725,3.009858 -1.59392,3.999825 -1.05669,0.98996 -2.46326,1.479797 -4.21787,1.469431 z"
     fill="#ffffff"
     id="path1"
     style="fill:#000000;stroke-width:0.925633" />
</svg>
