<?xml version="1.0" standalone="no"?>
<!DOCTYPE svg PUBLIC "-//W3C//DTD SVG 20010904//EN"
 "http://www.w3.org/TR/2001/REC-SVG-20010904/DTD/svg10.dtd">
<svg version="1.0" xmlns="http://www.w3.org/2000/svg"
 width="512.000000pt" height="512.000000pt" viewBox="0 0 512.000000 512.000000"
 preserveAspectRatio="xMidYMid meet">

<g transform="translate(0.000000,512.000000) scale(0.100000,-0.100000)"
fill="#d99d00" stroke="none">
<path d="M2705 5114 c-149 -21 -194 -29 -293 -55 -138 -36 -232 -73 -382 -149
-156 -80 -249 -145 -277 -195 -31 -56 -88 -231 -113 -350 -29 -133 -37 -409
-18 -547 l14 -98 -47 0 c-61 0 -93 -25 -114 -91 -13 -37 -16 -72 -13 -126 5
-66 12 -87 66 -196 37 -75 65 -145 71 -182 12 -67 32 -91 86 -101 32 -6 35 -9
40 -53 40 -290 120 -532 246 -738 47 -77 47 -104 -2 -203 l-30 -59 -184 -61
-185 -62 0 -322 c0 -237 3 -325 12 -334 17 -17 1939 -17 1956 0 9 9 12 97 12
334 l0 322 -185 62 -184 61 -31 62 c-51 104 -50 121 9 220 104 173 179 387
220 626 12 68 21 127 21 132 0 5 7 9 15 9 14 0 95 37 95 43 2 58 30 142 82
246 l63 123 0 92 c0 75 -4 98 -23 133 -27 51 -47 63 -107 63 l-46 0 8 93 c12
138 9 359 -6 479 l-14 108 41 88 c60 130 83 219 89 352 5 104 4 117 -13 132
-35 30 -259 95 -424 123 -91 15 -392 28 -455 19z m-636 -1039 c187 -48 275
-59 476 -59 210 0 334 15 506 63 l98 28 10 -51 c6 -28 22 -111 36 -184 15 -74
41 -177 60 -230 32 -94 33 -104 39 -298 9 -267 5 -283 -89 -399 -40 -50 -102
-120 -138 -157 l-64 -66 -149 52 -149 51 -145 -1 c-154 0 -194 -9 -374 -78
l-68 -26 -57 58 c-31 32 -95 105 -142 162 -105 128 -113 152 -97 315 5 61 8
157 5 215 -4 99 -3 111 28 205 34 102 67 259 80 373 6 51 10 62 22 58 9 -4 59
-17 112 -31z m637 -1463 c38 -10 78 -23 88 -29 16 -9 16 -12 -9 -41 -14 -17
-55 -46 -90 -63 -60 -29 -70 -31 -147 -27 -59 3 -95 11 -125 26 -45 24 -113
79 -113 92 0 8 93 42 145 53 52 12 186 6 251 -11z m-525 -648 c90 -93 251
-226 324 -270 30 -17 53 -24 69 -20 46 11 203 133 324 252 l124 121 20 -46
c26 -59 25 -79 -12 -156 -58 -121 -172 -220 -308 -267 -90 -31 -239 -30 -326
1 -159 57 -280 175 -330 323 -14 43 -14 49 4 87 11 22 20 45 20 51 0 5 2 10 4
10 2 0 41 -39 87 -86z"/>
<path d="M1140 1706 l-305 -103 -3 -801 -2 -802 1730 0 1730 0 -2 802 -3 801
-295 99 c-162 54 -303 101 -312 104 -17 5 -18 -14 -18 -306 0 -289 -1 -313
-20 -349 -13 -27 -33 -46 -63 -60 -43 -21 -48 -21 -1017 -21 -969 0 -974 0
-1017 21 -30 14 -50 33 -63 60 -19 36 -20 60 -20 349 0 170 -3 310 -7 309 -5
0 -145 -47 -313 -103z"/>
<path d="M614 1515 c-232 -116 -382 -295 -446 -530 -20 -75 -22 -103 -22 -420
-1 -325 0 -342 20 -386 30 -63 79 -116 138 -147 49 -26 58 -27 234 -30 l182
-4 0 781 c0 455 -4 781 -9 781 -5 0 -49 -20 -97 -45z"/>
<path d="M4390 780 l0 -782 188 4 c180 3 189 4 238 30 59 31 108 84 138 147
20 44 21 61 20 381 0 311 -2 341 -22 415 -47 175 -164 352 -298 454 -70 52
-187 115 -236 127 l-28 6 0 -782z"/>
</g>
</svg>
