<svg width="137" height="32" viewBox="0 0 137 32" fill="none" xmlns="http://www.w3.org/2000/svg">
<path d="M0.44 31V30H13.84C15.4933 30 16.8933 29.8 18.04 29.4C19.1867 29 20.12 28.2933 20.84 27.28C21.56 26.24 22.08 24.8 22.4 22.96C22.7467 21.12 22.92 18.7733 22.92 15.92C22.92 13.0667 22.7467 10.72 22.4 8.88C22.08 7.04 21.5467 5.61333 20.8 4.6C20.08 3.56 19.1467 2.84 18 2.44C16.8533 2.04 15.4533 1.84 13.8 1.84H0.44V0.84H15.08C17.08 0.84 18.9333 1.25333 20.64 2.08C22.3733 2.88 23.8933 3.98667 25.2 5.4C26.5067 6.81333 27.52 8.42667 28.24 10.24C28.96 12.0533 29.32 13.9467 29.32 15.92C29.32 17.8933 28.9467 19.7867 28.2 21.6C27.48 23.4133 26.4667 25.0267 25.16 26.44C23.88 27.8533 22.3733 28.9733 20.64 29.8C18.9067 30.6 17.04 31 15.04 31H0.44ZM4.84 30.4V0.84H10.2V30.4H4.84ZM34.8938 12.4L34.2138 11.56C35.5471 10.6267 36.5604 9.6 37.2538 8.48C37.9738 7.33333 38.3338 6.33333 38.3338 5.48C38.3338 4.94667 38.2138 4.52 37.9738 4.2C37.7604 3.88 37.5738 3.72 37.4138 3.72C37.2538 3.72 37.1204 3.82667 37.0138 4.04C36.9071 4.25333 36.7738 4.50667 36.6138 4.8C36.4538 5.09333 36.2138 5.34666 35.8938 5.56C35.5738 5.77333 35.1338 5.88 34.5738 5.88C33.7471 5.88 33.1338 5.62667 32.7338 5.12C32.3604 4.61333 32.1738 4.06667 32.1738 3.48C32.1738 2.65333 32.4671 1.94666 33.0538 1.36C33.6671 0.773332 34.4938 0.48 35.5338 0.48C36.7871 0.48 37.7738 0.919999 38.4938 1.8C39.2404 2.68 39.6138 3.77333 39.6138 5.08C39.6138 6.57333 39.1604 7.94667 38.2538 9.2C37.3471 10.4533 36.2271 11.52 34.8938 12.4ZM50.1709 17.32V16.12H53.4909C55.3043 16.12 56.7709 15.9333 57.8909 15.56C59.0109 15.16 59.8243 14.4267 60.3309 13.36C60.8376 12.2667 61.0909 10.7067 61.0909 8.68C61.0909 6.78667 60.8776 5.34667 60.4509 4.36C60.0509 3.37333 59.4376 2.70667 58.6109 2.36C57.7843 2.01333 56.7443 1.84 55.4909 1.84H41.6509V0.84H57.0909C59.0109 0.84 60.7309 1.18667 62.2509 1.88C63.7976 2.57333 65.0243 3.53333 65.9309 4.76C66.8376 5.96 67.2909 7.34667 67.2909 8.92C67.2909 10.5733 66.7309 12.04 65.6109 13.32C64.5176 14.5733 62.9443 15.56 60.8909 16.28C58.8376 16.9733 56.3709 17.32 53.4909 17.32H50.1709ZM41.6509 31V30H56.6109V31H41.6509ZM46.0509 30.4V0.84H51.4109V30.4H46.0509ZM76.9366 31.48C75.6566 31.48 74.4432 31.2267 73.2966 30.72C72.1766 30.1867 71.1899 29.48 70.3366 28.6C69.4832 27.6933 68.8166 26.68 68.3366 25.56C67.8566 24.4133 67.6166 23.2267 67.6166 22C67.6166 20.3733 67.9899 18.84 68.7366 17.4C69.5099 15.96 70.5766 14.7867 71.9366 13.88C73.2966 12.9733 74.8966 12.52 76.7366 12.52C78.1766 12.52 79.4699 12.8533 80.6166 13.52C81.7899 14.16 82.7099 15.0667 83.3766 16.24C84.0432 17.4133 84.3766 18.76 84.3766 20.28V20.52H71.2966V19.52H79.7366V17.24C79.7366 14.8133 78.6699 13.6 76.5366 13.6C75.6566 13.6 74.9366 13.8667 74.3766 14.4C73.8432 14.9067 73.4432 15.7733 73.1766 17C72.9366 18.2267 72.8166 19.8933 72.8166 22C72.8166 24.16 72.9499 25.84 73.2166 27.04C73.4832 28.24 73.9232 29.08 74.5366 29.56C75.1766 30.04 76.0166 30.28 77.0566 30.28C78.4699 30.28 79.6966 29.92 80.7366 29.2C81.7766 28.48 82.6566 27.2267 83.3766 25.44H84.4966C83.9632 27.3067 83.0166 28.7867 81.6566 29.88C80.3232 30.9467 78.7499 31.48 76.9366 31.48ZM89.8519 30.4V1.48H94.2519V30.4H89.8519ZM86.6919 31V30H97.4519V31H86.6919ZM86.6919 1.84V0.84H94.2519V1.84H86.6919ZM109.248 31.48C107.941 31.48 106.714 31.2133 105.568 30.68C104.448 30.1467 103.448 29.44 102.568 28.56C101.714 27.6533 101.048 26.64 100.568 25.52C100.088 24.3733 99.8478 23.2 99.8478 22C99.8478 20.8 100.088 19.64 100.568 18.52C101.048 17.3733 101.714 16.36 102.568 15.48C103.448 14.5733 104.448 13.8533 105.568 13.32C106.714 12.7867 107.941 12.52 109.248 12.52C110.554 12.52 111.768 12.7867 112.888 13.32C114.034 13.8533 115.034 14.5733 115.888 15.48C116.768 16.36 117.448 17.3733 117.928 18.52C118.408 19.64 118.648 20.8 118.648 22C118.648 23.2 118.408 24.3733 117.928 25.52C117.448 26.64 116.768 27.6533 115.888 28.56C115.034 29.44 114.034 30.1467 112.888 30.68C111.768 31.2133 110.554 31.48 109.248 31.48ZM109.248 30.28C110.261 30.28 111.074 30.0533 111.688 29.6C112.301 29.1467 112.741 28.3333 113.008 27.16C113.301 25.96 113.448 24.24 113.448 22C113.448 19.76 113.301 18.04 113.008 16.84C112.741 15.64 112.301 14.8267 111.688 14.4C111.074 13.9467 110.261 13.72 109.248 13.72C108.234 13.72 107.421 13.9467 106.808 14.4C106.194 14.8267 105.741 15.64 105.448 16.84C105.181 18.04 105.048 19.76 105.048 22C105.048 24.24 105.181 25.96 105.448 27.16C105.741 28.3333 106.194 29.1467 106.808 29.6C107.421 30.0533 108.234 30.28 109.248 30.28ZM130.029 31.48C128.935 31.48 127.869 31.2933 126.829 30.92C125.815 30.5467 124.989 30.0533 124.349 29.44L123.749 31H122.589V24.88H123.869L124.069 25.64C124.442 27.08 125.109 28.1733 126.069 28.92C127.055 29.6667 128.362 30.04 129.989 30.04C131.322 30.04 132.255 29.8133 132.789 29.36C133.322 28.88 133.589 28.2 133.589 27.32C133.589 26.44 133.229 25.8 132.509 25.4C131.789 24.9733 130.682 24.6 129.189 24.28C127.909 24.0133 126.789 23.68 125.829 23.28C124.895 22.8533 124.162 22.2667 123.629 21.52C123.095 20.7467 122.829 19.6933 122.829 18.36C122.829 16.4667 123.375 15.0267 124.469 14.04C125.562 13.0267 127.122 12.52 129.149 12.52C130.295 12.52 131.282 12.68 132.109 13C132.962 13.32 133.562 13.76 133.909 14.32L134.349 13H135.389V18.8H134.149L134.029 18.2C133.735 16.7067 133.215 15.6267 132.469 14.96C131.749 14.2933 130.669 13.96 129.229 13.96C127.949 13.96 126.989 14.2133 126.349 14.72C125.735 15.2 125.429 15.88 125.429 16.76C125.429 17.1867 125.549 17.5733 125.789 17.92C126.029 18.24 126.469 18.5333 127.109 18.8C127.775 19.0667 128.695 19.3333 129.869 19.6C131.229 19.8933 132.375 20.2667 133.309 20.72C134.242 21.1733 134.949 21.7733 135.429 22.52C135.935 23.2667 136.189 24.24 136.189 25.44C136.189 27.28 135.629 28.7467 134.509 29.84C133.389 30.9333 131.895 31.48 130.029 31.48Z" fill="white"/>
</svg>
